<?xml version="1.0" standalone="no"?>
<svg xmlns="http://www.w3.org/2000/svg" xmlns:xlink="http://www.w3.org/1999/xlink" width="307pt" height="332pt" viewBox="0.00 0.00 307.11 332.00">
<g id="graph0" class="graph" transform="translate(4,328) scale(1)" data-name="">
<polygon fill="#fff8f1" stroke="none" points="-4,4 -4,-328 303.11,-328 303.11,4 -4,4" style=""/>
<!-- A -->
<g id="node1" class="node" pointer-events="visible" data-name="A">

<ellipse fill="none" stroke="black" cx="117.05" cy="-162" rx="62.59" ry="18" style=""/>
<text text-anchor="middle" x="117.05" y="-157.8" font-family="Times,serif" font-size="14.00" style="">BinaryOp (*)</text>
</g>
<!-- B -->
<g id="node2" class="node" pointer-events="visible" data-name="B">

<ellipse fill="none" stroke="black" cx="52.05" cy="-90" rx="52.11" ry="18" style=""/>
<text text-anchor="middle" x="52.05" y="-85.8" font-family="Times,serif" font-size="14.00" style="">Integer (4)</text>
</g>
<!-- A&#45;&gt;B -->
<g id="edge3" class="edge" data-name="A-&gt;B">

<path fill="none" stroke="black" d="M101.65,-144.41C93.72,-135.87 83.88,-125.28 75.07,-115.79" style=""/>
<polygon fill="black" stroke="black" points="77.75,-113.53 68.38,-108.58 72.62,-118.29 77.75,-113.53" style=""/>
</g>
<!-- C -->
<g id="node3" class="node" pointer-events="visible" data-name="C">

<ellipse fill="none" stroke="black" cx="183.05" cy="-90" rx="61.37" ry="18" style=""/>
<text text-anchor="middle" x="183.05" y="-85.8" font-family="Times,serif" font-size="14.00" style="">BinaryOp (-)</text>
</g>
<!-- A&#45;&gt;C -->
<g id="edge4" class="edge" data-name="A-&gt;C">

<path fill="none" stroke="black" d="M132.7,-144.41C140.75,-135.87 150.74,-125.28 159.68,-115.79" style=""/>
<polygon fill="black" stroke="black" points="162.17,-118.25 166.49,-108.57 157.08,-113.45 162.17,-118.25" style=""/>
</g>
<!-- D -->
<g id="node4" class="node" pointer-events="visible" data-name="D">

<ellipse fill="none" stroke="black" cx="120.05" cy="-18" rx="56.77" ry="18" style=""/>
<text text-anchor="middle" x="120.05" y="-13.8" font-family="Times,serif" font-size="14.00" style="">Integer (17)</text>
</g>
<!-- C&#45;&gt;D -->
<g id="edge5" class="edge" data-name="C-&gt;D">

<path fill="none" stroke="black" d="M168.12,-72.41C160.44,-63.87 150.91,-53.28 142.36,-43.79" style=""/>
<polygon fill="black" stroke="black" points="145.18,-41.69 135.89,-36.59 139.98,-46.37 145.18,-41.69" style=""/>
</g>
<!-- E -->
<g id="node5" class="node" pointer-events="visible" data-name="E">

<ellipse fill="none" stroke="black" cx="247.05" cy="-18" rx="52.11" ry="18" style=""/>
<text text-anchor="middle" x="247.05" y="-13.8" font-family="Times,serif" font-size="14.00" style="">Integer (2)</text>
</g>
<!-- C&#45;&gt;E -->
<g id="edge6" class="edge" data-name="C-&gt;E">

<path fill="none" stroke="black" d="M198.22,-72.41C206.03,-63.87 215.71,-53.28 224.39,-43.79" style=""/>
<polygon fill="black" stroke="black" points="226.81,-46.33 230.98,-36.59 221.64,-41.61 226.81,-46.33" style=""/>
</g>
<!-- Root -->
<g id="node6" class="node" pointer-events="visible" data-name="Root">

<ellipse fill="none" stroke="black" cx="117.05" cy="-306" rx="29.64" ry="18" style=""/>
<text text-anchor="middle" x="117.05" y="-301.8" font-family="Times,serif" font-size="14.00" style="">Root</text>
</g>
<!-- ExitStatement -->
<g id="node7" class="node" pointer-events="visible" data-name="ExitStatement">

<ellipse fill="none" stroke="black" cx="117.05" cy="-234" rx="66" ry="18" style=""/>
<text text-anchor="middle" x="117.05" y="-229.8" font-family="Times,serif" font-size="14.00" style="">ExitStatement</text>
</g>
<!-- Root&#45;&gt;ExitStatement -->
<g id="edge1" class="edge" data-name="Root-&gt;ExitStatement">

<path fill="none" stroke="black" d="M117.05,-287.7C117.05,-280.41 117.05,-271.73 117.05,-263.54" style=""/>
<polygon fill="black" stroke="black" points="120.56,-263.62 117.05,-253.62 113.56,-263.62 120.56,-263.62" style=""/>
</g>
<!-- ExitStatement&#45;&gt;A -->
<g id="edge2" class="edge" data-name="ExitStatement-&gt;A">

<path fill="none" stroke="black" d="M117.05,-215.7C117.05,-208.41 117.05,-199.73 117.05,-191.54" style=""/>
<polygon fill="black" stroke="black" points="120.56,-191.62 117.05,-181.62 113.56,-191.62 120.56,-191.62" style=""/>
</g>
</g>
</svg>